<svg width="100%" height="100%" style="overflow:visible;" preserveAspectRatio="none" viewBox="0 0 320 70" fill="none" xmlns="http://www.w3.org/2000/svg">
<rect width="320" height="70" fill="white"/>
<path d="M302.9 15.6667H296.306L289.403 8.74878C288.925 8.26948 288.276 8.00014 287.6 8H277.4C276.724 8.00014 276.075 8.26948 275.597 8.74878L268.694 15.6667H262.1C259.287 15.6667 257 17.959 257 20.7778V48.8889C257 51.7077 259.287 54 262.1 54H302.9C305.713 54 308 51.7077 308 48.8889V20.7778C308 17.959 305.713 15.6667 302.9 15.6667ZM282.5 46.3333C275.59 46.3333 269.75 40.4811 269.75 33.5556C269.75 26.63 275.59 20.7778 282.5 20.7778C289.41 20.7778 295.25 26.63 295.25 33.5556C295.25 40.4811 289.41 46.3333 282.5 46.3333Z" fill="black"/>
<path fill-rule="evenodd" clip-rule="evenodd" d="M167.262 8.71733C166.803 8.25803 166.18 8 165.53 8C164.88 8 164.257 8.25803 163.798 8.71733L146.648 25.8675L141.748 30.7676C141.514 30.9936 141.327 31.2639 141.199 31.5628C141.071 31.8618 141.003 32.1832 141 32.5086C140.997 32.8339 141.059 33.1565 141.182 33.4576C141.306 33.7587 141.488 34.0322 141.718 34.2623C141.948 34.4923 142.221 34.6742 142.522 34.7974C142.823 34.9206 143.146 34.9826 143.471 34.9798C143.797 34.977 144.118 34.9094 144.417 34.781C144.716 34.6526 144.986 34.4659 145.212 34.2319L145.93 33.514V49.6499C145.93 51.5993 146.704 53.4688 148.083 54.8472C149.461 56.2256 151.331 57 153.28 57H177.78C179.729 57 181.599 56.2256 182.977 54.8472C184.356 53.4688 185.13 51.5993 185.13 49.6499V33.514L185.848 34.2319C186.31 34.6782 186.929 34.9251 187.571 34.9196C188.214 34.914 188.828 34.6563 189.282 34.2021C189.737 33.7478 189.994 33.1333 190 32.4909C190.005 31.8485 189.759 31.2297 189.312 30.7676L167.262 8.71733Z" fill="black"/>
</svg>
